<svg xmlns="http://www.w3.org/2000/svg" width="920" height="276" viewBox="0 0 920 276" role="img">
<title>Edad · alumnas · FACTOR_ALUMNOS</title>
<rect width="920" height="276" fill="#fafaf9"/>
<text x="200" y="18" fill="#78716c" font-size="12" font-family="Segoe UI, Helvetica, Arial, sans-serif">Edad · alumnas · FACTOR_ALUMNOS</text>
<text x="192" y="51" text-anchor="end" fill="#1c1917" font-size="12" font-family="Segoe UI, Helvetica, Arial, sans-serif">12</text>
<rect x="200" y="32" width="456.4" height="28" fill="#0369a1" rx="3"/>
<text x="662.4" y="51" fill="#1c1917" font-size="12" font-family="Segoe UI, Helvetica, Arial, sans-serif">13.5%</text>
<text x="192" y="89" text-anchor="end" fill="#1c1917" font-size="12" font-family="Segoe UI, Helvetica, Arial, sans-serif">13</text>
<rect x="200" y="70" width="635.5" height="28" fill="#0369a1" rx="3"/>
<text x="841.5" y="89" fill="#1c1917" font-size="12" font-family="Segoe UI, Helvetica, Arial, sans-serif">18.7%</text>
<text x="192" y="127" text-anchor="end" fill="#1c1917" font-size="12" font-family="Segoe UI, Helvetica, Arial, sans-serif">14</text>
<rect x="200" y="108" width="664.0" height="28" fill="#0369a1" rx="3"/>
<text x="870.0" y="127" fill="#1c1917" font-size="12" font-family="Segoe UI, Helvetica, Arial, sans-serif">19.6%</text>
<text x="192" y="165" text-anchor="end" fill="#1c1917" font-size="12" font-family="Segoe UI, Helvetica, Arial, sans-serif">15</text>
<rect x="200" y="146" width="655.0" height="28" fill="#0369a1" rx="3"/>
<text x="861.0" y="165" fill="#1c1917" font-size="12" font-family="Segoe UI, Helvetica, Arial, sans-serif">19.3%</text>
<text x="192" y="203" text-anchor="end" fill="#1c1917" font-size="12" font-family="Segoe UI, Helvetica, Arial, sans-serif">16</text>
<rect x="200" y="184" width="605.2" height="28" fill="#0369a1" rx="3"/>
<text x="811.2" y="203" fill="#1c1917" font-size="12" font-family="Segoe UI, Helvetica, Arial, sans-serif">17.8%</text>
<text x="192" y="241" text-anchor="end" fill="#1c1917" font-size="12" font-family="Segoe UI, Helvetica, Arial, sans-serif">17</text>
<rect x="200" y="222" width="374.6" height="28" fill="#0369a1" rx="3"/>
<text x="580.6" y="241" fill="#1c1917" font-size="12" font-family="Segoe UI, Helvetica, Arial, sans-serif">11.0%</text>
</svg>