<svg xmlns="http://www.w3.org/2000/svg" width="960" height="768" viewBox="0 0 960 768" role="img">
<title>Sí Violencia sexual 12m: % ponderado de cada X (0/1) por cluster</title>
<rect width="960" height="768" fill="#fafaf9"/>
<text x="220" y="18" fill="#78716c" font-size="12" font-family="Segoe UI, Helvetica, Arial, sans-serif">Sí Violencia sexual 12m: % ponderado de cada X (0/1) por cluster</text>
<text x="212" y="64" text-anchor="end" fill="#1c1917" font-size="12" font-family="Segoe UI, Helvetica, Arial, sans-serif">Toman en cuenta su opinión</text>
<rect x="220" y="36.0" width="555.5" height="12.7" fill="#0369a1" rx="2"/>
<text x="779.5" y="45.7" fill="#1c1917" font-size="10" font-family="Segoe UI, Helvetica, Arial, sans-serif">78.0%</text>
<rect x="220" y="50.7" width="612.2" height="12.7" fill="#c2410c" rx="2"/>
<text x="836.2" y="60.3" fill="#1c1917" font-size="10" font-family="Segoe UI, Helvetica, Arial, sans-serif">86.0%</text>
<rect x="220" y="65.3" width="564.5" height="12.7" fill="#7c3aed" rx="2"/>
<text x="788.5" y="75.0" fill="#1c1917" font-size="10" font-family="Segoe UI, Helvetica, Arial, sans-serif">79.3%</text>
<text x="212" y="122" text-anchor="end" fill="#1c1917" font-size="12" font-family="Segoe UI, Helvetica, Arial, sans-serif">Actitud: debe trabajar si falta plata</text>
<rect x="220" y="94.0" width="710.8" height="12.7" fill="#0369a1" rx="2"/>
<text x="934.8" y="103.7" fill="#1c1917" font-size="10" font-family="Segoe UI, Helvetica, Arial, sans-serif">99.8%</text>
<rect x="220" y="108.7" width="1.0" height="12.7" fill="#c2410c" rx="2"/>
<text x="224.0" y="118.3" fill="#1c1917" font-size="10" font-family="Segoe UI, Helvetica, Arial, sans-serif">0.0%</text>
<rect x="220" y="123.3" width="149.9" height="12.7" fill="#7c3aed" rx="2"/>
<text x="373.9" y="133.0" fill="#1c1917" font-size="10" font-family="Segoe UI, Helvetica, Arial, sans-serif">21.0%</text>
<text x="212" y="180" text-anchor="end" fill="#1c1917" font-size="12" font-family="Segoe UI, Helvetica, Arial, sans-serif">Actitud: padres deciden que deje el colegio</text>
<rect x="220" y="152.0" width="167.1" height="12.7" fill="#0369a1" rx="2"/>
<text x="391.1" y="161.7" fill="#1c1917" font-size="10" font-family="Segoe UI, Helvetica, Arial, sans-serif">23.5%</text>
<rect x="220" y="166.7" width="94.9" height="12.7" fill="#c2410c" rx="2"/>
<text x="318.9" y="176.3" fill="#1c1917" font-size="10" font-family="Segoe UI, Helvetica, Arial, sans-serif">13.3%</text>
<rect x="220" y="181.3" width="146.8" height="12.7" fill="#7c3aed" rx="2"/>
<text x="370.8" y="191.0" fill="#1c1917" font-size="10" font-family="Segoe UI, Helvetica, Arial, sans-serif">20.6%</text>
<text x="212" y="238" text-anchor="end" fill="#1c1917" font-size="12" font-family="Segoe UI, Helvetica, Arial, sans-serif">Actitud: padres tienen derecho a golpear</text>
<rect x="220" y="210.0" width="393.7" height="12.7" fill="#0369a1" rx="2"/>
<text x="617.7" y="219.7" fill="#1c1917" font-size="10" font-family="Segoe UI, Helvetica, Arial, sans-serif">55.3%</text>
<rect x="220" y="224.7" width="218.5" height="12.7" fill="#c2410c" rx="2"/>
<text x="442.5" y="234.3" fill="#1c1917" font-size="10" font-family="Segoe UI, Helvetica, Arial, sans-serif">30.7%</text>
<rect x="220" y="239.3" width="273.9" height="12.7" fill="#7c3aed" rx="2"/>
<text x="497.9" y="249.0" fill="#1c1917" font-size="10" font-family="Segoe UI, Helvetica, Arial, sans-serif">38.5%</text>
<text x="212" y="296" text-anchor="end" fill="#1c1917" font-size="12" font-family="Segoe UI, Helvetica, Arial, sans-serif">Vive con hermana/s</text>
<rect x="220" y="268.0" width="418.4" height="12.7" fill="#0369a1" rx="2"/>
<text x="642.4" y="277.7" fill="#1c1917" font-size="10" font-family="Segoe UI, Helvetica, Arial, sans-serif">58.8%</text>
<rect x="220" y="282.7" width="379.3" height="12.7" fill="#c2410c" rx="2"/>
<text x="603.3" y="292.3" fill="#1c1917" font-size="10" font-family="Segoe UI, Helvetica, Arial, sans-serif">53.3%</text>
<rect x="220" y="297.3" width="377.9" height="12.7" fill="#7c3aed" rx="2"/>
<text x="601.9" y="307.0" fill="#1c1917" font-size="10" font-family="Segoe UI, Helvetica, Arial, sans-serif">53.1%</text>
<text x="212" y="354" text-anchor="end" fill="#1c1917" font-size="12" font-family="Segoe UI, Helvetica, Arial, sans-serif">Vive con tío</text>
<rect x="220" y="326.0" width="101.4" height="12.7" fill="#0369a1" rx="2"/>
<text x="325.4" y="335.7" fill="#1c1917" font-size="10" font-family="Segoe UI, Helvetica, Arial, sans-serif">14.2%</text>
<rect x="220" y="340.7" width="69.4" height="12.7" fill="#c2410c" rx="2"/>
<text x="293.4" y="350.3" fill="#1c1917" font-size="10" font-family="Segoe UI, Helvetica, Arial, sans-serif">9.8%</text>
<rect x="220" y="355.3" width="52.4" height="12.7" fill="#7c3aed" rx="2"/>
<text x="276.4" y="365.0" fill="#1c1917" font-size="10" font-family="Segoe UI, Helvetica, Arial, sans-serif">7.4%</text>
<text x="212" y="412" text-anchor="end" fill="#1c1917" font-size="12" font-family="Segoe UI, Helvetica, Arial, sans-serif">Se queda sola sin adulto</text>
<rect x="220" y="384.0" width="488.6" height="12.7" fill="#0369a1" rx="2"/>
<text x="712.6" y="393.7" fill="#1c1917" font-size="10" font-family="Segoe UI, Helvetica, Arial, sans-serif">68.6%</text>
<rect x="220" y="398.7" width="475.2" height="12.7" fill="#c2410c" rx="2"/>
<text x="699.2" y="408.3" fill="#1c1917" font-size="10" font-family="Segoe UI, Helvetica, Arial, sans-serif">66.7%</text>
<rect x="220" y="413.3" width="470.3" height="12.7" fill="#7c3aed" rx="2"/>
<text x="694.3" y="423.0" fill="#1c1917" font-size="10" font-family="Segoe UI, Helvetica, Arial, sans-serif">66.1%</text>
<text x="212" y="470" text-anchor="end" fill="#1c1917" font-size="12" font-family="Segoe UI, Helvetica, Arial, sans-serif">Falta al colegio para ayudar</text>
<rect x="220" y="442.0" width="106.7" height="12.7" fill="#0369a1" rx="2"/>
<text x="330.7" y="451.7" fill="#1c1917" font-size="10" font-family="Segoe UI, Helvetica, Arial, sans-serif">15.0%</text>
<rect x="220" y="456.7" width="63.3" height="12.7" fill="#c2410c" rx="2"/>
<text x="287.3" y="466.3" fill="#1c1917" font-size="10" font-family="Segoe UI, Helvetica, Arial, sans-serif">8.9%</text>
<rect x="220" y="471.3" width="45.9" height="12.7" fill="#7c3aed" rx="2"/>
<text x="269.9" y="481.0" fill="#1c1917" font-size="10" font-family="Segoe UI, Helvetica, Arial, sans-serif">6.5%</text>
<text x="212" y="528" text-anchor="end" fill="#1c1917" font-size="12" font-family="Segoe UI, Helvetica, Arial, sans-serif">Peleas en casa</text>
<rect x="220" y="500.0" width="482.1" height="12.7" fill="#0369a1" rx="2"/>
<text x="706.1" y="509.7" fill="#1c1917" font-size="10" font-family="Segoe UI, Helvetica, Arial, sans-serif">67.7%</text>
<rect x="220" y="514.7" width="436.3" height="12.7" fill="#c2410c" rx="2"/>
<text x="660.3" y="524.3" fill="#1c1917" font-size="10" font-family="Segoe UI, Helvetica, Arial, sans-serif">61.3%</text>
<rect x="220" y="529.3" width="382.2" height="12.7" fill="#7c3aed" rx="2"/>
<text x="606.2" y="539.0" fill="#1c1917" font-size="10" font-family="Segoe UI, Helvetica, Arial, sans-serif">53.7%</text>
<text x="212" y="586" text-anchor="end" fill="#1c1917" font-size="12" font-family="Segoe UI, Helvetica, Arial, sans-serif">IE de mujeres</text>
<rect x="220" y="558.0" width="1.0" height="12.7" fill="#0369a1" rx="2"/>
<text x="224.0" y="567.7" fill="#1c1917" font-size="10" font-family="Segoe UI, Helvetica, Arial, sans-serif">0.0%</text>
<rect x="220" y="572.7" width="1.0" height="12.7" fill="#c2410c" rx="2"/>
<text x="224.0" y="582.3" fill="#1c1917" font-size="10" font-family="Segoe UI, Helvetica, Arial, sans-serif">0.0%</text>
<rect x="220" y="587.3" width="712.0" height="12.7" fill="#7c3aed" rx="2"/>
<text x="936.0" y="597.0" fill="#1c1917" font-size="10" font-family="Segoe UI, Helvetica, Arial, sans-serif">100.0%</text>
<text x="212" y="644" text-anchor="end" fill="#1c1917" font-size="12" font-family="Segoe UI, Helvetica, Arial, sans-serif">Se siente mal/muy mal en el colegio</text>
<rect x="220" y="616.0" width="158.7" height="12.7" fill="#0369a1" rx="2"/>
<text x="382.7" y="625.7" fill="#1c1917" font-size="10" font-family="Segoe UI, Helvetica, Arial, sans-serif">22.3%</text>
<rect x="220" y="630.7" width="105.1" height="12.7" fill="#c2410c" rx="2"/>
<text x="329.1" y="640.3" fill="#1c1917" font-size="10" font-family="Segoe UI, Helvetica, Arial, sans-serif">14.8%</text>
<rect x="220" y="645.3" width="86.2" height="12.7" fill="#7c3aed" rx="2"/>
<text x="310.2" y="655.0" fill="#1c1917" font-size="10" font-family="Segoe UI, Helvetica, Arial, sans-serif">12.1%</text>
<text x="212" y="702" text-anchor="end" fill="#1c1917" font-size="12" font-family="Segoe UI, Helvetica, Arial, sans-serif">Jaló un curso (2023)</text>
<rect x="220" y="674.0" width="286.2" height="12.7" fill="#0369a1" rx="2"/>
<text x="510.2" y="683.7" fill="#1c1917" font-size="10" font-family="Segoe UI, Helvetica, Arial, sans-serif">40.2%</text>
<rect x="220" y="688.7" width="193.9" height="12.7" fill="#c2410c" rx="2"/>
<text x="417.9" y="698.3" fill="#1c1917" font-size="10" font-family="Segoe UI, Helvetica, Arial, sans-serif">27.2%</text>
<rect x="220" y="703.3" width="225.4" height="12.7" fill="#7c3aed" rx="2"/>
<text x="449.4" y="713.0" fill="#1c1917" font-size="10" font-family="Segoe UI, Helvetica, Arial, sans-serif">31.7%</text>
<rect x="220" y="750" width="10" height="10" fill="#0369a1" rx="2"/>
<text x="234" y="759" fill="#1c1917" font-size="11" font-family="Segoe UI, Helvetica, Arial, sans-serif">sex_si-1</text>
<rect x="380" y="750" width="10" height="10" fill="#c2410c" rx="2"/>
<text x="394" y="759" fill="#1c1917" font-size="11" font-family="Segoe UI, Helvetica, Arial, sans-serif">sex_si-2</text>
<rect x="540" y="750" width="10" height="10" fill="#7c3aed" rx="2"/>
<text x="554" y="759" fill="#1c1917" font-size="11" font-family="Segoe UI, Helvetica, Arial, sans-serif">sex_si-3</text>
</svg>