<svg xmlns="http://www.w3.org/2000/svg" width="960" height="246" viewBox="0 0 960 246" role="img">
<title>No Violencia sexual 12m: % de cada tipo de violencia 12m (ponderado)</title>
<rect width="960" height="246" fill="#fafaf9"/>
<text x="220" y="18" fill="#78716c" font-size="12" font-family="Segoe UI, Helvetica, Arial, sans-serif">No Violencia sexual 12m: % de cada tipo de violencia 12m (ponderado)</text>
<text x="212" y="64" text-anchor="end" fill="#1c1917" font-size="12" font-family="Segoe UI, Helvetica, Arial, sans-serif">Psicológica</text>
<rect x="220" y="36.0" width="412.5" height="12.7" fill="#0369a1" rx="2"/>
<text x="636.5" y="45.7" fill="#1c1917" font-size="10" font-family="Segoe UI, Helvetica, Arial, sans-serif">57.9%</text>
<rect x="220" y="50.7" width="394.6" height="12.7" fill="#c2410c" rx="2"/>
<text x="618.6" y="60.3" fill="#1c1917" font-size="10" font-family="Segoe UI, Helvetica, Arial, sans-serif">55.4%</text>
<rect x="220" y="65.3" width="358.8" height="12.7" fill="#7c3aed" rx="2"/>
<text x="582.8" y="75.0" fill="#1c1917" font-size="10" font-family="Segoe UI, Helvetica, Arial, sans-serif">50.4%</text>
<text x="212" y="122" text-anchor="end" fill="#1c1917" font-size="12" font-family="Segoe UI, Helvetica, Arial, sans-serif">Física</text>
<rect x="220" y="94.0" width="179.1" height="12.7" fill="#0369a1" rx="2"/>
<text x="403.1" y="103.7" fill="#1c1917" font-size="10" font-family="Segoe UI, Helvetica, Arial, sans-serif">25.2%</text>
<rect x="220" y="108.7" width="191.8" height="12.7" fill="#c2410c" rx="2"/>
<text x="415.8" y="118.3" fill="#1c1917" font-size="10" font-family="Segoe UI, Helvetica, Arial, sans-serif">26.9%</text>
<rect x="220" y="123.3" width="118.3" height="12.7" fill="#7c3aed" rx="2"/>
<text x="342.3" y="133.0" fill="#1c1917" font-size="10" font-family="Segoe UI, Helvetica, Arial, sans-serif">16.6%</text>
<text x="212" y="180" text-anchor="end" fill="#1c1917" font-size="12" font-family="Segoe UI, Helvetica, Arial, sans-serif">Sexual</text>
<rect x="220" y="152.0" width="1.0" height="12.7" fill="#0369a1" rx="2"/>
<text x="224.0" y="161.7" fill="#1c1917" font-size="10" font-family="Segoe UI, Helvetica, Arial, sans-serif">0.0%</text>
<rect x="220" y="166.7" width="1.0" height="12.7" fill="#c2410c" rx="2"/>
<text x="224.0" y="176.3" fill="#1c1917" font-size="10" font-family="Segoe UI, Helvetica, Arial, sans-serif">0.0%</text>
<rect x="220" y="181.3" width="1.0" height="12.7" fill="#7c3aed" rx="2"/>
<text x="224.0" y="191.0" fill="#1c1917" font-size="10" font-family="Segoe UI, Helvetica, Arial, sans-serif">0.0%</text>
<rect x="220" y="228" width="10" height="10" fill="#0369a1" rx="2"/>
<text x="234" y="237" fill="#1c1917" font-size="11" font-family="Segoe UI, Helvetica, Arial, sans-serif">sex_no-1</text>
<rect x="380" y="228" width="10" height="10" fill="#c2410c" rx="2"/>
<text x="394" y="237" fill="#1c1917" font-size="11" font-family="Segoe UI, Helvetica, Arial, sans-serif">sex_no-2</text>
<rect x="540" y="228" width="10" height="10" fill="#7c3aed" rx="2"/>
<text x="554" y="237" fill="#1c1917" font-size="11" font-family="Segoe UI, Helvetica, Arial, sans-serif">sex_no-3</text>
</svg>